<svg width="48" height="48" viewBox="0 0 48 48" fill="none" xmlns="http://www.w3.org/2000/svg">
<path d="M37.9062 11.125H11.0938C9.3851 11.125 8 12.5101 8 14.2188V32.7812C8 34.4899 9.3851 35.875 11.0938 35.875H37.9062C39.6149 35.875 41 34.4899 41 32.7812V14.2188C41 12.5101 39.6149 11.125 37.9062 11.125ZM37.9062 14.2188V16.8488C36.4611 18.0256 34.1571 19.8556 29.2317 23.7124C28.1462 24.5662 25.9961 26.6174 24.5 26.5935C23.0042 26.6177 20.8533 24.5659 19.7683 23.7124C14.8436 19.8561 12.5391 18.0258 11.0938 16.8488V14.2188H37.9062ZM11.0938 32.7812V20.8186C12.5706 21.995 14.665 23.6457 17.8573 26.1454C19.2661 27.2543 21.7332 29.7023 24.5 29.6874C27.2532 29.7023 29.6891 27.2898 31.1421 26.1459C34.3343 23.6462 36.4293 21.9951 37.9062 20.8187V32.7812H11.0938Z" fill="#949596"/>
</svg>
