<svg width="48" height="48" viewBox="0 0 48 48" fill="none" xmlns="http://www.w3.org/2000/svg">
<g clip-path="url(#clip0)">
<path d="M30.7503 9.6C29.2878 10.957 27.9673 12.3837 26.7973 13.8166C24.8806 11.1764 22.5041 8.4982 19.8125 6C12.9036 12.4104 8 20.7628 8 25.8C8 34.7473 15.0516 42 23.75 42C32.4484 42 39.5 34.7473 39.5 25.8C39.5 22.0545 35.8452 14.3292 30.7503 9.6ZM29.3813 33.552C27.8584 34.6179 25.9803 35.25 23.9511 35.25C18.878 35.25 14.75 31.8933 14.75 26.4434C14.75 23.7286 16.4593 21.3366 19.868 17.25C20.3553 17.8111 26.817 26.063 26.817 26.063L30.9395 21.3605C31.2305 21.8421 31.4956 22.3132 31.7319 22.7646C33.6549 26.4342 32.8435 31.1297 29.3813 33.552Z" fill="#949596"/>
</g>
<defs>
<clipPath id="clip0">
<rect width="31.5" height="36" fill="white" transform="translate(8 6)"/>
</clipPath>
</defs>
</svg>
