<svg width="48" height="48" viewBox="0 0 48 48" fill="none" xmlns="http://www.w3.org/2000/svg">
<g clip-path="url(#clip0)">
<path d="M38.2313 10.5211C34.1672 7.10392 27.8883 7.6172 24 11.5758C20.1117 7.6172 13.8328 7.09689 9.76876 10.5211C4.48126 14.9719 5.2547 22.2281 9.02345 26.0742L21.3563 38.6391C22.0594 39.3563 23.0016 39.757 24 39.757C25.0055 39.757 25.9406 39.3633 26.6438 38.6461L38.9766 26.0813C42.7383 22.2352 43.5258 14.9789 38.2313 10.5211ZM36.5719 23.7047L24.2391 36.2695C24.0703 36.4383 23.9297 36.4383 23.7609 36.2695L11.4281 23.7047C8.86173 21.0891 8.34141 16.1391 11.9414 13.1086C14.6766 10.8094 18.8953 11.1539 21.5391 13.8469L24 16.357L26.4609 13.8469C29.1188 11.1399 33.3375 10.8094 36.0586 13.1016C39.6516 16.132 39.1172 21.1102 36.5719 23.7047Z" fill="#949596"/>
</g>
<defs>
<clipPath id="clip0">
<rect width="36" height="36" fill="white" transform="translate(6 6)"/>
</clipPath>
</defs>
</svg>
