<svg width="48" height="48" viewBox="0 0 48 48" fill="none" xmlns="http://www.w3.org/2000/svg">
<g clip-path="url(#clip0)">
<path d="M23.5231 17.2662L12 26.7569V37C12 37.2652 12.1054 37.5196 12.2929 37.7071C12.4804 37.8946 12.7348 38 13 38L20.0038 37.9819C20.2681 37.9805 20.5212 37.8746 20.7076 37.6872C20.8941 37.4998 20.9988 37.2462 20.9987 36.9819V31C20.9987 30.7348 21.1041 30.4804 21.2916 30.2929C21.4792 30.1053 21.7335 30 21.9987 30H25.9987C26.264 30 26.5183 30.1053 26.7058 30.2929C26.8934 30.4804 26.9987 30.7348 26.9987 31V36.9775C26.9983 37.1091 27.0239 37.2394 27.074 37.3611C27.124 37.4828 27.1976 37.5934 27.2905 37.6866C27.3834 37.7798 27.4938 37.8537 27.6153 37.9042C27.7369 37.9546 27.8672 37.9806 27.9987 37.9806L35 38C35.2652 38 35.5196 37.8946 35.7071 37.7071C35.8946 37.5196 36 37.2652 36 37V26.75L24.4794 17.2662C24.3439 17.1571 24.1752 17.0975 24.0012 17.0975C23.8273 17.0975 23.6586 17.1571 23.5231 17.2662ZM41.725 23.7169L36.5 19.41V10.7531C36.5 10.5542 36.421 10.3634 36.2803 10.2228C36.1397 10.0821 35.9489 10.0031 35.75 10.0031H32.25C32.0511 10.0031 31.8603 10.0821 31.7197 10.2228C31.579 10.3634 31.5 10.5542 31.5 10.7531V15.2912L25.9044 10.6875C25.3674 10.2456 24.6936 10.004 23.9981 10.004C23.3027 10.004 22.6289 10.2456 22.0919 10.6875L6.27127 23.7169C6.19532 23.7796 6.13249 23.8568 6.08636 23.9438C6.04023 24.0309 6.01171 24.1262 6.00242 24.2243C5.99313 24.3224 6.00327 24.4213 6.03224 24.5155C6.06121 24.6097 6.10845 24.6972 6.17127 24.7731L7.76502 26.7106C7.82766 26.7868 7.90471 26.8499 7.99177 26.8962C8.07882 26.9426 8.17415 26.9713 8.27232 26.9808C8.37049 26.9902 8.46956 26.9802 8.56387 26.9514C8.65817 26.9225 8.74585 26.8753 8.82189 26.8125L23.5231 14.7037C23.6586 14.5946 23.8273 14.535 24.0012 14.535C24.1752 14.535 24.3439 14.5946 24.4794 14.7037L39.1812 26.8125C39.2571 26.8753 39.3447 26.9225 39.4389 26.9515C39.533 26.9805 39.632 26.9906 39.7301 26.9813C39.8282 26.972 39.9235 26.9435 40.0105 26.8974C40.0976 26.8513 40.1747 26.7884 40.2375 26.7125L41.8312 24.775C41.894 24.6986 41.941 24.6106 41.9696 24.5161C41.9983 24.4215 42.0079 24.3222 41.9981 24.2238C41.9882 24.1255 41.959 24.0301 41.9121 23.9431C41.8652 23.8561 41.8016 23.7792 41.725 23.7169Z" fill="#949596"/>
</g>
<defs>
<clipPath id="clip0">
<rect width="36" height="32" fill="white" transform="translate(6 8)"/>
</clipPath>
</defs>
</svg>
