<svg width="414" height="896" viewBox="0 0 414 896" fill="none" xmlns="http://www.w3.org/2000/svg">
<g clip-path="url(#clip0)">
<path d="M0 48C0 31.1984 0 22.7976 3.2698 16.3803C6.14601 10.7354 10.7354 6.14601 16.3803 3.2698C22.7976 0 31.1984 0 48 0H366C382.802 0 391.202 0 397.62 3.2698C403.265 6.14601 407.854 10.7354 410.73 16.3803C414 22.7976 414 31.1984 414 48V848C414 864.802 414 873.202 410.73 879.62C407.854 885.265 403.265 889.854 397.62 892.73C391.202 896 382.802 896 366 896H48C31.1984 896 22.7976 896 16.3803 892.73C10.7354 889.854 6.14601 885.265 3.2698 879.62C0 873.202 0 864.802 0 848V48Z" fill="white"/>
<g filter="url(#filter0_b)">
<rect x="134" y="883.001" width="146" height="5" rx="2.5" fill="black"/>
</g>
<g filter="url(#filter1_b)">
<rect width="414" height="88.001" fill="#F9F9F9" fill-opacity="0.78"/>
<g filter="url(#filter2_b)">
<path d="M28.9597 30H30.9753V18.7266H28.9675L26.0222 20.7969V22.6953L28.8269 20.7109H28.9597V30ZM36.5772 30H38.5928V18.7266H36.585L33.6397 20.7969V22.6953L36.4444 20.7109H36.5772V30ZM42.9291 22.7031C43.6712 22.7031 44.1791 22.1875 44.1791 21.4922C44.1791 20.7969 43.6712 20.2812 42.9291 20.2812C42.1947 20.2812 41.6791 20.7969 41.6791 21.4922C41.6791 22.1875 42.1947 22.7031 42.9291 22.7031ZM42.9291 28.4375C43.6712 28.4375 44.1791 27.9141 44.1791 27.2266C44.1791 26.5312 43.6712 26.0156 42.9291 26.0156C42.1947 26.0156 41.6791 26.5312 41.6791 27.2266C41.6791 27.9141 42.1947 28.4375 42.9291 28.4375ZM46.3747 22.0625H48.2653C48.2653 20.875 49.0466 20.0625 50.2731 20.0625C51.4528 20.0625 52.1559 20.8516 52.1559 21.875C52.1559 22.7344 51.8122 23.2734 50.3903 24.7109L46.4841 28.6406V30H54.3122V28.3281H49.2184V28.1953L51.6403 25.8125C53.5778 23.9141 54.1481 23 54.1481 21.6875C54.1481 19.8125 52.6247 18.4453 50.3825 18.4453C48.0309 18.4453 46.3747 19.9297 46.3747 22.0625ZM58.9609 30H60.9766V18.7266H58.9687L56.0234 20.7969V22.6953L58.8281 20.7109H58.9609V30Z" fill="black"/>
<path d="M68.2412 24.7129L72.0171 24.7236C72.103 24.7236 72.1353 24.7559 72.1353 24.8418L72.146 28.6177C72.146 29.3213 72.3555 29.9014 72.9624 29.9014C73.4727 29.9014 73.7627 29.4341 74.0098 28.9023L78.0488 20.126C78.1724 19.8628 78.2422 19.6211 78.2422 19.4116C78.2422 18.9604 77.8931 18.6167 77.4473 18.6167C77.2378 18.6167 76.9961 18.6865 76.7275 18.8101L67.9565 22.8438C67.4409 23.0801 66.9521 23.3755 66.9521 23.8911C66.9521 24.4927 67.5161 24.7129 68.2412 24.7129Z" fill="black"/>
</g>
<g filter="url(#filter3_b)">
<rect opacity="0.2" x="341.5" y="19" width="3.5" height="11.5" rx="1" fill="black"/>
<path d="M336.5 22.5C336.5 21.9477 336.948 21.5 337.5 21.5H339C339.552 21.5 340 21.9477 340 22.5V29.5C340 30.0523 339.552 30.5 339 30.5H337.5C336.948 30.5 336.5 30.0523 336.5 29.5V22.5Z" fill="black"/>
<path d="M331.5 25C331.5 24.4477 331.948 24 332.5 24H334C334.552 24 335 24.4477 335 25V29.5C335 30.0523 334.552 30.5 334 30.5H332.5C331.948 30.5 331.5 30.0523 331.5 29.5V25Z" fill="black"/>
<path d="M326.5 27C326.5 26.4477 326.948 26 327.5 26H329C329.552 26 330 26.4477 330 27V29.5C330 30.0523 329.552 30.5 329 30.5H327.5C326.948 30.5 326.5 30.0523 326.5 29.5V27Z" fill="black"/>
<path d="M360.325 28.2891C360.39 28.2255 360.426 28.138 360.424 28.0473C360.422 27.9566 360.383 27.8707 360.316 27.8098C358.979 26.6784 357.022 26.6784 355.686 27.8098C355.618 27.8706 355.579 27.9565 355.577 28.0472C355.575 28.138 355.611 28.2254 355.676 28.2891L357.768 30.4029C357.83 30.465 357.913 30.5 358.001 30.5C358.088 30.5 358.171 30.465 358.233 30.4029L360.325 28.2891Z" fill="black"/>
<path d="M358 25.369C359.276 25.369 360.506 25.8435 361.451 26.7006C361.579 26.8222 361.781 26.8195 361.905 26.6946L363.115 25.4711C363.179 25.4069 363.214 25.3199 363.213 25.2294C363.212 25.1389 363.175 25.0526 363.11 24.9898C360.231 22.3088 355.772 22.3088 352.893 24.9898C352.828 25.0526 352.791 25.139 352.79 25.2295C352.789 25.32 352.825 25.407 352.889 25.4711L354.098 26.6946C354.223 26.8195 354.424 26.8222 354.552 26.7006C355.497 25.8441 356.726 25.3696 358 25.369Z" fill="black"/>
<path opacity="0.2" d="M358 21.3883C360.322 21.3884 362.555 22.2813 364.237 23.8825C364.364 24.0061 364.566 24.0045 364.691 23.879L365.902 22.6555C365.965 22.5918 366.001 22.5055 366 22.4158C365.999 22.326 365.963 22.2402 365.899 22.1772C361.483 17.9409 354.517 17.9409 350.101 22.1772C350.037 22.2401 350.001 22.326 350 22.4157C349.999 22.5055 350.035 22.5917 350.098 22.6555L351.309 23.879C351.434 24.0047 351.637 24.0063 351.763 23.8825C353.446 22.2812 355.679 21.3883 358 21.3883Z" fill="black"/>
<g clip-path="url(#clip1)">
<path d="M372 21.75C372 21.0596 372.56 20.5 373.25 20.5H374V29H373.25C372.56 29 372 28.4404 372 27.75V21.75Z" fill="black"/>
<path d="M374 20.5H376V29H374V20.5Z" fill="black"/>
<path d="M376 20.5H378V29H376V20.5Z" fill="black"/>
<path d="M378 20.5H380V29H378V20.5Z" fill="black"/>
<path d="M380 20.5H382V29H380V20.5Z" fill="black"/>
<path d="M382 20.5H384V29H382V20.5Z" fill="black"/>
<path d="M384 20.5H386V29H384V20.5Z" fill="black"/>
<path d="M388 21.75C388 21.0596 387.44 20.5 386.75 20.5H386V29H386.75C387.44 29 388 28.4404 388 27.75V21.75Z" fill="black"/>
</g>
<g opacity="0.5">
<path fill-rule="evenodd" clip-rule="evenodd" d="M370 21.5C370 19.8431 371.343 18.5 373 18.5H391C392.657 18.5 394 19.8431 394 21.5V28C394 29.6569 392.657 31 391 31H373C371.343 31 370 29.6569 370 28V21.5ZM373 19.5C371.895 19.5 371 20.3954 371 21.5V28C371 29.1046 371.895 30 373 30H391C392.105 30 393 29.1046 393 28V21.5C393 20.3954 392.105 19.5 391 19.5H373Z" fill="black"/>
<path d="M395 27.042C395.883 26.6562 396.5 25.7751 396.5 24.75C396.5 23.7248 395.883 22.8438 395 22.458V27.042Z" fill="black"/>
</g>
</g>
<rect y="87.5" width="414" height="0.5" fill="#C6C6C8"/>
</g>
</g>
<defs>
<filter id="filter0_b" x="-30" y="832.001" width="474" height="94" filterUnits="userSpaceOnUse" color-interpolation-filters="sRGB">
<feFlood flood-opacity="0" result="BackgroundImageFix"/>
<feGaussianBlur in="BackgroundImage" stdDeviation="15"/>
<feComposite in2="SourceAlpha" operator="in" result="effect1_backgroundBlur"/>
<feBlend mode="normal" in="SourceGraphic" in2="effect1_backgroundBlur" result="shape"/>
</filter>
<filter id="filter1_b" x="-30" y="-30" width="474" height="148.001" filterUnits="userSpaceOnUse" color-interpolation-filters="sRGB">
<feFlood flood-opacity="0" result="BackgroundImageFix"/>
<feGaussianBlur in="BackgroundImage" stdDeviation="15"/>
<feComposite in2="SourceAlpha" operator="in" result="effect1_backgroundBlur"/>
<feBlend mode="normal" in="SourceGraphic" in2="effect1_backgroundBlur" result="shape"/>
</filter>
<filter id="filter2_b" x="-56" y="-56" width="208" height="156" filterUnits="userSpaceOnUse" color-interpolation-filters="sRGB">
<feFlood flood-opacity="0" result="BackgroundImageFix"/>
<feGaussianBlur in="BackgroundImage" stdDeviation="28"/>
<feComposite in2="SourceAlpha" operator="in" result="effect1_backgroundBlur"/>
<feBlend mode="normal" in="SourceGraphic" in2="effect1_backgroundBlur" result="shape"/>
</filter>
<filter id="filter3_b" x="262" y="-56" width="208" height="156" filterUnits="userSpaceOnUse" color-interpolation-filters="sRGB">
<feFlood flood-opacity="0" result="BackgroundImageFix"/>
<feGaussianBlur in="BackgroundImage" stdDeviation="28"/>
<feComposite in2="SourceAlpha" operator="in" result="effect1_backgroundBlur"/>
<feBlend mode="normal" in="SourceGraphic" in2="effect1_backgroundBlur" result="shape"/>
</filter>
<clipPath id="clip0">
<path d="M0 48C0 31.1984 0 22.7976 3.2698 16.3803C6.14601 10.7354 10.7354 6.14601 16.3803 3.2698C22.7976 0 31.1984 0 48 0H366C382.802 0 391.202 0 397.62 3.2698C403.265 6.14601 407.854 10.7354 410.73 16.3803C414 22.7976 414 31.1984 414 48V848C414 864.802 414 873.202 410.73 879.62C407.854 885.265 403.265 889.854 397.62 892.73C391.202 896 382.802 896 366 896H48C31.1984 896 22.7976 896 16.3803 892.73C10.7354 889.854 6.14601 885.265 3.2698 879.62C0 873.202 0 864.802 0 848V48Z" fill="white"/>
</clipPath>
<clipPath id="clip1">
<rect width="16" height="8.5" fill="white" transform="translate(372 20.5)"/>
</clipPath>
</defs>
</svg>
