<svg width="14" height="14" viewBox="0 0 14 14" fill="none" xmlns="http://www.w3.org/2000/svg">
<path fill-rule="evenodd" clip-rule="evenodd" d="M5.44444 9.87C3.00533 9.87 1.02044 7.88511 1.02044 5.44522C1.02044 3.00533 3.00533 1.02044 5.44444 1.02044C7.8851 1.02044 9.86999 3.00533 9.86999 5.44522C9.86999 7.88511 7.8851 9.87 5.44444 9.87ZM13.2564 12.5767L9.61722 8.93822C10.4113 7.99167 10.8904 6.77444 10.8904 5.44522C10.8904 2.443 8.44744 0 5.44445 0C2.44222 0 0 2.443 0 5.44522C0 8.44822 2.44222 10.8904 5.44445 10.8904C6.58233 10.8904 7.63778 10.5389 8.512 9.94L12.2018 13.6298C12.3472 13.776 12.5378 13.8491 12.7291 13.8491C12.9197 13.8491 13.111 13.776 13.2564 13.6298C13.5473 13.3397 13.5473 12.8668 13.2564 12.5767Z" fill="black"/>
<mask id="mask0" mask-type="alpha" maskUnits="userSpaceOnUse" x="0" y="0" width="14" height="14">
<path fill-rule="evenodd" clip-rule="evenodd" d="M5.44444 9.87C3.00533 9.87 1.02044 7.88511 1.02044 5.44522C1.02044 3.00533 3.00533 1.02044 5.44444 1.02044C7.8851 1.02044 9.86999 3.00533 9.86999 5.44522C9.86999 7.88511 7.8851 9.87 5.44444 9.87ZM13.2564 12.5767L9.61722 8.93822C10.4113 7.99167 10.8904 6.77444 10.8904 5.44522C10.8904 2.443 8.44744 0 5.44445 0C2.44222 0 0 2.443 0 5.44522C0 8.44822 2.44222 10.8904 5.44445 10.8904C6.58233 10.8904 7.63778 10.5389 8.512 9.94L12.2018 13.6298C12.3472 13.776 12.5378 13.8491 12.7291 13.8491C12.9197 13.8491 13.111 13.776 13.2564 13.6298C13.5473 13.3397 13.5473 12.8668 13.2564 12.5767Z" fill="white"/>
</mask>
<g mask="url(#mask0)">
<rect width="14" height="14" fill="#949596"/>
</g>
</svg>
