<svg width="48" height="48" viewBox="0 0 48 48" fill="none" xmlns="http://www.w3.org/2000/svg">
<g clip-path="url(#clip0)">
<path d="M42.0723 17.4273L32.5724 7.92945C30.5923 5.94936 27.1667 7.33603 27.1667 10.1685V13.942C24.3661 14.0661 21.623 14.3741 19.1999 15.1289C16.8796 15.8513 15.039 16.9484 13.7301 18.3892C12.1395 20.1414 11.3333 22.3449 11.3333 24.9403C11.3333 29.0105 13.5222 32.3592 16.9324 34.4904C19.4094 36.0413 22.5564 33.6558 21.6177 30.8131C20.5942 27.7046 20.4859 26.1342 27.1667 25.6171V29.1664C27.1667 32.0028 30.5951 33.3829 32.5724 31.4055L42.0723 21.9055C43.3093 20.6692 43.3093 18.6637 42.0723 17.4273ZM30.3333 29.1664V22.3159C21.8433 22.4427 15.9838 23.8458 18.6107 31.8053C16.6632 30.5881 14.5 28.38 14.5 24.9403C14.5 17.7272 23.0197 17.0931 30.3333 17.0335V10.1664L39.8333 19.6664L30.3333 29.1664ZM31.9655 34.7406C32.453 34.6014 32.9187 34.3948 33.3492 34.1269C33.8754 33.8002 34.5556 34.1814 34.5556 34.8007V37.6109C34.5556 39.3598 33.1378 40.7775 31.3889 40.7775H8.16667C6.41774 40.7775 5 39.3598 5 37.6109V14.3887C5 12.6397 6.41774 11.222 8.16667 11.222H16.875C17.3122 11.222 17.6667 11.5765 17.6667 12.0137V12.3096C17.6667 12.634 17.4696 12.9277 17.1673 13.0453C16.2634 13.397 15.4259 13.8065 14.6571 14.2714C14.5323 14.3476 14.389 14.3881 14.2428 14.3887H8.5625C8.45752 14.3887 8.35684 14.4304 8.2826 14.5046C8.20837 14.5788 8.16667 14.6795 8.16667 14.7845V37.215C8.16667 37.32 8.20837 37.4207 8.2826 37.4949C8.35684 37.5692 8.45752 37.6109 8.5625 37.6109H30.9931C31.098 37.6109 31.1987 37.5692 31.2729 37.4949C31.3472 37.4207 31.3889 37.32 31.3889 37.215V35.502C31.3889 35.1477 31.625 34.8384 31.9655 34.7406Z" fill="#949596"/>
</g>
<defs>
<clipPath id="clip0">
<rect width="38" height="33.7778" fill="white" transform="translate(5 7)"/>
</clipPath>
</defs>
</svg>
