<svg width="48" height="48" viewBox="0 0 48 48" fill="none" xmlns="http://www.w3.org/2000/svg">
<g clip-path="url(#clip0)">
<path d="M23.7039 6.57111C13.9239 6.57111 6 14.495 6 24.275C6 34.055 13.9239 41.9789 23.7039 41.9789C33.4839 41.9789 41.4078 34.055 41.4078 24.275C41.4078 14.495 33.4839 6.57111 23.7039 6.57111ZM23.7039 13.4242C27.1733 13.4242 29.9859 16.2369 29.9859 19.7063C29.9859 23.1757 27.1733 25.9883 23.7039 25.9883C20.2345 25.9883 17.4219 23.1757 17.4219 19.7063C17.4219 16.2369 20.2345 13.4242 23.7039 13.4242ZM23.7039 37.9813C19.5135 37.9813 15.7586 36.0824 13.2458 33.1127C14.5878 30.5856 17.2149 28.8438 20.2773 28.8438C20.4487 28.8438 20.62 28.8723 20.7842 28.9223C21.7122 29.2221 22.6831 29.4149 23.7039 29.4149C24.7247 29.4149 25.7027 29.2221 26.6236 28.9223C26.7878 28.8723 26.9591 28.8438 27.1305 28.8438C30.193 28.8438 32.82 30.5856 34.1621 33.1127C31.6493 36.0824 27.8943 37.9813 23.7039 37.9813Z" fill="#949596"/>
</g>
<defs>
<clipPath id="clip0">
<rect width="35.4078" height="36.55" fill="white" transform="translate(6 6)"/>
</clipPath>
</defs>
</svg>
