<svg width="48" height="48" viewBox="0 0 48 48" fill="none" xmlns="http://www.w3.org/2000/svg">
<path d="M11.4 22.6C13.3856 22.6 15 20.9856 15 19C15 17.0144 13.3856 15.4 11.4 15.4C9.41437 15.4 7.8 17.0144 7.8 19C7.8 20.9856 9.41437 22.6 11.4 22.6ZM36.6 22.6C38.5856 22.6 40.2 20.9856 40.2 19C40.2 17.0144 38.5856 15.4 36.6 15.4C34.6144 15.4 33 17.0144 33 19C33 20.9856 34.6144 22.6 36.6 22.6ZM38.4 24.4H34.8C33.81 24.4 32.9156 24.7994 32.2631 25.4462C34.53 26.6894 36.1387 28.9337 36.4875 31.6H40.2C41.1956 31.6 42 30.7956 42 29.8V28C42 26.0144 40.3856 24.4 38.4 24.4ZM24 24.4C27.4819 24.4 30.3 21.5819 30.3 18.1C30.3 14.6181 27.4819 11.8 24 11.8C20.5181 11.8 17.7 14.6181 17.7 18.1C17.7 21.5819 20.5181 24.4 24 24.4ZM28.32 26.2H27.8531C26.6831 26.7625 25.3837 27.1 24 27.1C22.6162 27.1 21.3225 26.7625 20.1469 26.2H19.68C16.1025 26.2 13.2 29.1025 13.2 32.68V34.3C13.2 35.7906 14.4094 37 15.9 37H32.1C33.5906 37 34.8 35.7906 34.8 34.3V32.68C34.8 29.1025 31.8975 26.2 28.32 26.2ZM15.7369 25.4462C15.0844 24.7994 14.19 24.4 13.2 24.4H9.6C7.61437 24.4 6 26.0144 6 28V29.8C6 30.7956 6.80437 31.6 7.8 31.6H11.5069C11.8612 28.9337 13.47 26.6894 15.7369 25.4462Z" fill="#949596"/>
</svg>
