<svg width="48" height="48" viewBox="0 0 48 48" fill="none" xmlns="http://www.w3.org/2000/svg">
<path d="M29.0625 24C29.0625 26.7984 26.7984 29.0625 24 29.0625C21.2016 29.0625 18.9375 26.7984 18.9375 24C18.9375 21.2016 21.2016 18.9375 24 18.9375C26.7984 18.9375 29.0625 21.2016 29.0625 24ZM36.375 18.9375C33.5766 18.9375 31.3125 21.2016 31.3125 24C31.3125 26.7984 33.5766 29.0625 36.375 29.0625C39.1734 29.0625 41.4375 26.7984 41.4375 24C41.4375 21.2016 39.1734 18.9375 36.375 18.9375ZM11.625 18.9375C8.82656 18.9375 6.5625 21.2016 6.5625 24C6.5625 26.7984 8.82656 29.0625 11.625 29.0625C14.4234 29.0625 16.6875 26.7984 16.6875 24C16.6875 21.2016 14.4234 18.9375 11.625 18.9375Z" fill="#949596"/>
</svg>
