<svg width="48" height="48" viewBox="0 0 48 48" fill="none" xmlns="http://www.w3.org/2000/svg">
<g clip-path="url(#clip0)">
<path d="M25.5 9.49068C25.5 8.00318 23.5844 7.44255 22.7406 8.67568C15 19.9901 26 20.4994 26 25.9994C26 28.2263 24.1806 30.0282 21.9469 29.9988C19.7487 29.9707 18 28.1382 18 25.9401V20.5957C18 19.2394 16.3456 18.5813 15.4106 19.5644C13.7375 21.3219 12 24.3326 12 27.9994C12 34.6163 17.3831 39.9994 24 39.9994C30.6169 39.9994 36 34.6163 36 27.9994C36 17.3563 25.5 15.9369 25.5 9.49068Z" fill="#949596"/>
</g>
<defs>
<clipPath id="clip0">
<rect width="24" height="32" fill="white" transform="translate(12 8)"/>
</clipPath>
</defs>
</svg>
