<svg width="22" height="15" viewBox="0 0 22 15" fill="none" xmlns="http://www.w3.org/2000/svg">
<g clip-path="url(#clip0)">
<path d="M21.2382 4.48835L11.9673 1.97761C11.4621 1.8408 10.917 1.8408 10.4121 1.97761L1.14092 4.48835C0.358543 4.70017 0.358543 5.61218 1.14092 5.824L2.7572 6.26169C2.40257 6.64812 2.18454 7.11951 2.16293 7.63572C1.84287 7.79744 1.61753 8.08923 1.61753 8.43757C1.61753 8.75339 1.80631 9.01911 2.07818 9.18904L1.22966 12.5547C1.15588 12.8473 1.40847 13.1251 1.74848 13.1251H3.61336C3.9537 13.1251 4.20629 12.8473 4.13251 12.5547L3.28399 9.18904C3.55586 9.01911 3.74464 8.75339 3.74464 8.43757C3.74464 8.09861 3.52961 7.81501 3.22416 7.65037C3.24942 7.21033 3.50468 6.82126 3.91182 6.57458L10.4118 8.33503C10.7129 8.41648 11.2906 8.51814 11.9669 8.33503L21.2382 5.82429C22.0209 5.61218 22.0209 4.70046 21.2382 4.48835ZM12.2794 9.23122C11.3311 9.48787 10.5232 9.34607 10.0994 9.23122L5.27949 7.92605L4.8082 11.2501C4.8082 12.2857 7.66518 13.1251 11.1895 13.1251C14.7139 13.1251 17.5709 12.2857 17.5709 11.2501L17.0996 7.92576L12.2794 9.23122Z" fill="#595959"/>
</g>
<defs>
<clipPath id="clip0">
<rect width="21.2711" height="15" fill="white" transform="translate(0.553955)"/>
</clipPath>
</defs>
</svg>
