<svg width="48" height="48" viewBox="0 0 48 48" fill="none" xmlns="http://www.w3.org/2000/svg">
<g clip-path="url(#clip0)">
<path d="M43.8411 17.0537L25.5356 11.4297C24.5381 11.1232 23.4619 11.1232 22.465 11.4297L4.15893 17.0537C2.61412 17.5282 2.61412 19.5711 4.15893 20.0456L7.35028 21.026C6.65006 21.8916 6.21956 22.9475 6.1769 24.1038C5.54493 24.4661 5.1 25.1197 5.1 25.9C5.1 26.6074 5.47275 27.2026 6.00956 27.5833L4.33415 35.1223C4.18846 35.7779 4.68721 36.4 5.35856 36.4H9.04078C9.71278 36.4 10.2115 35.7779 10.0658 35.1223L8.39043 27.5833C8.92725 27.2026 9.3 26.6074 9.3 25.9C9.3 25.1407 8.8754 24.5055 8.27231 24.1366C8.32218 23.151 8.82618 22.2795 9.63009 21.7269L22.4644 25.6703C23.0589 25.8527 24.1995 26.0805 25.535 25.6703L43.8411 20.0462C45.3865 19.5711 45.3865 17.5289 43.8411 17.0537ZM26.1518 27.6778C24.2796 28.2526 22.6842 27.935 21.8475 27.6778L12.3306 24.7542L11.4 32.2C11.4 34.5198 17.0411 36.4 24 36.4C30.9589 36.4 36.6 34.5198 36.6 32.2L35.6694 24.7535L26.1518 27.6778Z" fill="#949596"/>
</g>
<defs>
<clipPath id="clip0">
<rect width="42" height="33.6" fill="white" transform="translate(3 7)"/>
</clipPath>
</defs>
</svg>
