<svg width="55" height="60" viewBox="0 0 55 60" fill="none" xmlns="http://www.w3.org/2000/svg">
<path fill-rule="evenodd" clip-rule="evenodd" d="M32.4592 41.7869C32.0733 41.7869 31.6864 41.6395 31.3916 41.3447L21.4422 31.3953C21.1593 31.1113 21 30.7277 21 30.3267C21 29.9257 21.1593 29.542 21.4422 29.258L31.2583 19.443C31.849 18.8523 32.8049 18.8523 33.3945 19.443C33.9852 20.0337 33.9852 20.9907 33.3945 21.5792L24.647 30.3267L33.5278 39.2074C34.1174 39.7981 34.1174 40.7551 33.5278 41.3447C33.233 41.6395 32.8461 41.7869 32.4592 41.7869" fill="#DEA900"/>
<mask id="mask0" mask-type="alpha" maskUnits="userSpaceOnUse" x="21" y="19" width="13" height="23">
<path fill-rule="evenodd" clip-rule="evenodd" d="M32.4592 41.7869C32.0733 41.7869 31.6864 41.6395 31.3916 41.3447L21.4422 31.3953C21.1593 31.1113 21 30.7277 21 30.3267C21 29.9257 21.1593 29.542 21.4422 29.258L31.2583 19.443C31.849 18.8523 32.8049 18.8523 33.3945 19.443C33.9852 20.0337 33.9852 20.9907 33.3945 21.5792L24.647 30.3267L33.5278 39.2074C34.1174 39.7981 34.1174 40.7551 33.5278 41.3447C33.233 41.6395 32.8461 41.7869 32.4592 41.7869" fill="white"/>
</mask>
<g mask="url(#mask0)">
<rect x="21" y="19" width="13.0058" height="23.8439" fill="#595959"/>
</g>
</svg>
